{"glyphs":{"0":{"ha":972,"x_min":0,"x_max":0,"o":"m 488 -7 b 876 486 757 -7 876 206 b 488 979 876 757 767 979 b 97 486 213 979 97 763 b 488 -7 97 208 210 -7 z m 292 249 b 249 486 258 308 249 392 b 488 824 249 672 289 824 b 557 817 514 824 536 821 z m 488 149 b 417 156 461 149 438 151 l 682 724 b 725 486 715 664 725 581 b 488 149 725 299 685 149 z "},"1":{"ha":972,"x_min":0,"x_max":0,"o":"m 696 151 l 572 138 l 572 897 b 451 960 572 956 503 990 l 261 833 b 346 708 175 778 274 647 l 421 772 l 421 138 l 290 151 b 290 0 190 163 192 0 l 696 0 b 696 151 797 0 796 163 z "},"2":{"ha":972,"x_min":0,"x_max":0,"o":"m 200 0 l 772 1 b 771 153 874 1 871 153 l 285 138 b 543 376 318 257 418 318 b 825 686 708 451 825 524 b 478 979 825 872 657 979 b 139 738 260 979 139 869 b 285 738 139 661 285 661 b 486 828 285 817 397 828 b 674 686 589 828 674 783 b 481 514 674 603 589 564 b 125 76 260 414 125 308 b 200 0 125 36 158 1 z "},"3":{"ha":972,"x_min":0,"x_max":0,"o":"m 846 290 b 690 518 846 381 790 482 b 808 707 763 553 808 633 b 443 979 808 883 646 979 b 188 911 354 979 261 963 b 274 788 106 853 194 731 b 443 828 301 806 351 828 b 657 707 554 828 657 792 b 443 588 657 626 558 588 b 443 436 344 588 343 436 b 694 290 599 436 694 381 b 443 144 694 188 575 144 b 246 193 338 144 278 171 b 158 69 161 251 78 124 b 443 -7 238 15 339 -7 b 846 290 660 -7 846 92 z "},"4":{"ha":972,"x_min":0,"x_max":0,"o":"m 594 78 b 750 78 594 -24 750 -25 l 750 171 l 765 171 l 767 171 b 767 326 867 171 868 326 l 750 326 l 750 894 b 610 940 750 971 653 1000 l 146 294 b 208 172 108 246 144 172 l 594 171 z m 360 326 l 594 654 l 594 326 z "},"5":{"ha":972,"x_min":0,"x_max":0,"o":"m 443 -7 b 846 322 674 -7 846 115 b 443 651 846 529 668 651 b 304 635 393 651 347 646 l 339 821 l 696 821 b 696 972 796 821 797 972 l 276 972 b 201 911 240 972 208 946 l 129 519 b 250 446 117 450 197 401 b 443 500 294 481 361 500 b 694 322 586 500 694 440 b 443 144 694 211 600 144 b 250 199 361 144 294 164 b 154 82 171 261 78 144 b 443 -7 226 24 326 -7 z "},"6":{"ha":972,"x_min":0,"x_max":0,"o":"m 499 -7 b 864 344 717 -7 864 133 b 499 661 864 533 706 661 b 267 601 417 661 336 642 b 500 828 285 725 369 828 b 710 726 590 828 669 792 b 846 794 761 644 896 706 b 500 979 785 903 649 979 b 104 489 253 979 104 764 b 499 -7 104 203 233 -7 z m 499 144 b 260 408 340 144 283 247 b 499 510 326 475 410 510 b 714 344 613 510 714 450 b 499 144 714 222 635 144 z "},"7":{"ha":972,"x_min":0,"x_max":0,"o":"m 367 38 l 838 858 b 771 972 867 910 826 972 l 203 972 b 203 821 103 972 104 821 l 642 821 l 236 113 b 367 38 186 26 317 -47 z "},"8":{"ha":972,"x_min":0,"x_max":0,"o":"m 485 -7 b 851 301 692 -7 851 108 b 722 546 851 400 801 497 b 792 719 767 592 792 653 b 485 979 792 876 663 979 b 179 719 311 979 179 879 b 249 546 179 651 204 592 b 119 301 169 497 119 404 b 485 -7 119 110 274 -7 z m 485 610 b 331 719 400 610 331 643 b 485 828 331 792 396 828 b 640 719 571 828 640 794 b 485 610 640 643 571 610 z m 485 144 b 271 301 369 144 271 189 b 485 458 271 400 351 458 b 700 301 619 458 700 400 b 485 144 700 196 608 144 z "},"9":{"ha":972,"x_min":0,"x_max":0,"o":"m 469 979 b 104 628 251 979 104 839 b 469 311 104 439 263 311 b 701 371 551 311 632 331 b 468 144 683 247 599 144 b 258 246 378 144 299 181 b 122 178 207 328 72 267 b 468 -7 183 69 319 -7 b 864 483 715 -7 864 208 b 469 979 864 769 735 979 z m 469 828 b 708 564 628 828 685 725 b 469 463 642 497 558 463 b 254 628 356 463 254 522 b 469 828 254 750 333 828 z "},"A":{"ha":972,"x_min":0,"x_max":0,"o":"m 233 44 l 296 213 l 674 213 l 738 44 b 878 110 774 -49 915 15 l 560 918 b 411 918 536 990 433 985 l 92 110 b 233 44 54 15 197 -51 z m 342 369 l 485 739 l 629 369 z "},"Á":{"ha":972,"x_min":0,"x_max":0,"o":"m 571 1081 l 615 1176 b 501 1233 664 1282 531 1322 l 468 1133 b 571 1081 439 1044 543 1021 z m 233 44 l 296 213 l 674 213 l 738 44 b 878 110 774 -49 915 15 l 560 918 b 411 918 536 990 433 985 l 92 110 b 233 44 54 15 197 -51 z m 342 369 l 485 739 l 629 369 z "},"Ă":{"ha":972,"x_min":0,"x_max":0,"o":"m 489 1042 b 671 1182 576 1042 650 1101 b 531 1201 690 1242 563 1276 b 447 1201 513 1158 464 1158 b 307 1182 419 1272 289 1240 b 489 1042 328 1101 401 1042 z m 233 44 l 296 213 l 674 213 l 738 44 b 878 110 774 -49 915 15 l 560 918 b 411 918 536 990 433 985 l 92 110 b 233 44 54 15 197 -51 z m 342 369 l 485 739 l 629 369 z "},"Â":{"ha":972,"x_min":0,"x_max":0,"o":"m 343 1185 b 408 1075 263 1140 339 1028 l 486 1126 l 564 1075 b 628 1185 635 1025 706 1142 b 500 1250 563 1221 517 1250 l 471 1250 b 343 1185 453 1250 408 1221 z m 233 44 l 296 213 l 674 213 l 738 44 b 878 110 774 -49 915 15 l 560 918 b 411 918 536 990 433 985 l 92 110 b 233 44 54 15 197 -51 z m 342 369 l 485 739 l 629 369 z "},"Ä":{"ha":972,"x_min":0,"x_max":0,"o":"m 339 1042 b 450 1142 399 1042 450 1081 b 339 1240 450 1204 399 1240 b 228 1142 276 1240 228 1204 b 339 1042 228 1081 276 1042 z m 631 1042 b 742 1142 690 1042 742 1081 b 631 1240 742 1204 690 1240 b 519 1142 568 1240 519 1204 b 631 1042 519 1081 568 1042 z m 233 44 l 296 213 l 674 213 l 738 44 b 878 110 774 -49 915 15 l 560 918 b 411 918 536 990 433 985 l 92 110 b 233 44 54 15 197 -51 z m 342 369 l 485 739 l 629 369 z "},"À":{"ha":972,"x_min":0,"x_max":0,"o":"m 429 1081 b 532 1133 457 1021 561 1044 l 499 1233 b 385 1176 469 1322 336 1282 z m 233 44 l 296 213 l 674 213 l 738 44 b 878 110 774 -49 915 15 l 560 918 b 411 918 536 990 433 985 l 92 110 b 233 44 54 15 197 -51 z m 342 369 l 485 739 l 629 369 z "},"Ā":{"ha":972,"x_min":0,"x_max":0,"o":"m 365 1176 b 365 1042 276 1176 278 1042 l 606 1042 b 606 1176 693 1042 694 1176 z m 233 44 l 296 213 l 674 213 l 738 44 b 878 110 774 -49 915 15 l 560 918 b 411 918 536 990 433 985 l 92 110 b 233 44 54 15 197 -51 z m 342 369 l 485 739 l 629 369 z "},"Ą":{"ha":972,"x_min":0,"x_max":0,"o":"m 875 -94 b 804 -79 853 -119 818 -107 b 826 18 793 -57 806 -11 b 844 39 833 24 840 31 l 849 42 l 847 42 b 850 110 857 61 860 83 l 532 918 b 383 918 508 990 406 985 l 64 110 b 206 44 26 15 169 -51 l 268 213 l 646 213 l 706 57 b 707 -149 664 4 658 -81 b 943 -174 761 -225 889 -243 b 875 -94 986 -122 910 -57 z m 314 369 l 457 739 l 601 369 z "},"Å":{"ha":972,"x_min":0,"x_max":0,"o":"m 485 1042 b 658 1217 581 1042 658 1119 b 485 1389 658 1311 581 1389 b 311 1217 388 1389 311 1311 b 485 1042 311 1119 388 1042 z m 485 1163 b 432 1217 454 1163 432 1186 b 485 1268 432 1246 454 1268 b 538 1217 515 1268 538 1246 b 485 1163 538 1186 515 1163 z m 233 44 l 296 213 l 674 213 l 738 44 b 878 110 774 -49 915 15 l 560 918 b 411 918 536 990 433 985 l 92 110 b 233 44 54 15 197 -51 z m 342 369 l 485 739 l 629 369 z "},"Ã":{"ha":972,"x_min":0,"x_max":0,"o":"m 247 1151 b 367 1106 222 1078 326 1036 b 422 1133 375 1121 393 1133 b 590 1072 486 1133 515 1072 b 722 1179 656 1072 703 1114 b 604 1222 743 1246 643 1294 b 560 1194 596 1207 582 1194 b 399 1257 501 1194 475 1257 b 247 1151 326 1257 271 1217 z m 233 44 l 296 213 l 674 213 l 738 44 b 878 110 774 -49 915 15 l 560 918 b 411 918 536 990 433 985 l 92 110 b 233 44 54 15 197 -51 z m 342 369 l 485 739 l 629 369 z "},"Æ":{"ha":972,"x_min":0,"x_max":0,"o":"m 83 110 b 225 44 46 15 189 -51 l 288 213 l 464 213 l 464 88 b 553 0 464 39 504 0 l 817 0 b 817 156 919 0 919 156 l 619 156 l 619 408 l 749 408 b 749 564 851 408 851 564 l 619 564 l 619 817 l 818 817 b 818 972 921 817 921 972 l 610 972 b 403 918 476 972 425 985 z m 333 369 l 464 706 l 464 369 z "},"B":{"ha":972,"x_min":0,"x_max":0,"o":"m 217 0 l 556 0 b 719 511 825 0 933 326 b 503 972 871 689 746 972 l 217 972 b 139 894 174 972 139 938 l 139 78 b 217 0 139 35 174 0 z m 294 564 l 294 817 l 503 817 b 503 564 678 817 663 564 z m 294 156 l 294 408 l 556 408 b 556 156 726 408 715 156 z "},"C":{"ha":972,"x_min":0,"x_max":0,"o":"m 500 -7 b 801 142 621 -7 731 46 b 681 232 864 221 740 311 b 500 144 638 174 576 144 b 249 486 325 144 249 297 b 500 828 249 669 324 828 b 681 742 576 828 636 799 b 800 833 738 665 861 751 b 500 979 728 929 621 979 b 97 486 246 979 97 765 b 500 -7 97 211 240 -7 z "},"Ć":{"ha":972,"x_min":0,"x_max":0,"o":"m 596 1081 l 640 1176 b 526 1233 689 1282 556 1322 l 493 1133 b 596 1081 464 1044 568 1021 z m 500 -7 b 801 142 621 -7 731 46 b 681 232 864 221 740 311 b 500 144 638 174 576 144 b 249 486 325 144 249 297 b 500 828 249 669 324 828 b 681 742 576 828 636 799 b 800 833 738 665 861 751 b 500 979 728 929 621 979 b 97 486 246 979 97 765 b 500 -7 97 211 240 -7 z "},"Č":{"ha":972,"x_min":0,"x_max":0,"o":"m 524 1043 l 553 1043 b 681 1108 569 1043 628 1079 b 617 1218 761 1153 688 1268 l 539 1167 l 461 1218 b 396 1108 392 1265 310 1156 b 524 1043 449 1079 508 1043 z m 500 -7 b 801 142 621 -7 731 46 b 681 232 864 221 740 311 b 500 144 638 174 576 144 b 249 486 325 144 249 297 b 500 828 249 669 324 828 b 681 742 576 828 636 799 b 800 833 738 665 861 751 b 500 979 728 929 621 979 b 97 486 246 979 97 765 b 500 -7 97 211 240 -7 z "},"Ç":{"ha":972,"x_min":0,"x_max":0,"o":"m 681 232 b 500 144 638 174 576 144 b 249 486 325 144 249 297 b 500 828 249 669 324 828 b 681 742 576 828 636 799 b 800 833 738 665 861 751 b 500 979 728 929 621 979 b 97 486 246 979 97 765 b 449 -4 97 231 221 24 b 488 -121 478 -29 501 -92 b 417 -136 474 -149 439 -161 b 349 -215 382 -99 306 -164 b 585 -190 403 -285 531 -267 b 594 4 631 -126 629 -49 b 801 142 678 25 750 72 b 681 232 864 221 740 311 z "},"Ċ":{"ha":972,"x_min":0,"x_max":0,"o":"m 528 1042 b 639 1142 588 1042 639 1081 b 528 1240 639 1204 588 1240 b 417 1142 465 1240 417 1204 b 528 1042 417 1081 465 1042 z m 528 -7 b 829 142 649 -7 758 46 b 708 232 892 221 768 311 b 528 144 665 174 604 144 b 276 486 353 144 276 297 b 528 828 276 669 351 828 b 708 742 604 828 664 799 b 828 833 765 665 889 751 b 528 979 756 929 649 979 b 125 486 274 979 125 765 b 528 -7 125 211 268 -7 z "},"D":{"ha":972,"x_min":0,"x_max":0,"o":"m 457 972 l 172 972 b 97 897 131 972 97 939 l 97 75 b 172 0 97 33 131 0 l 457 0 b 860 486 722 0 860 193 b 457 972 860 775 731 972 z m 457 151 l 249 151 l 249 821 l 457 821 b 708 486 639 821 708 697 b 457 151 708 288 642 151 z "},"Ð":{"ha":972,"x_min":0,"x_max":0,"o":"m 457 972 l 172 972 b 97 897 131 972 97 939 l 97 553 l -65 553 b -65 419 -153 553 -151 419 l 97 419 l 97 75 b 172 0 97 33 131 0 l 457 0 b 860 486 722 0 860 193 b 457 972 860 775 731 972 z m 457 151 l 249 151 l 249 419 l 426 419 b 426 553 513 419 514 553 l 249 553 l 249 821 l 457 821 b 708 486 639 821 708 697 b 457 151 708 288 642 151 z "},"Ď":{"ha":972,"x_min":0,"x_max":0,"o":"m 274 1108 b 401 1043 326 1079 386 1043 l 431 1043 b 558 1108 447 1043 506 1079 b 494 1218 639 1153 565 1268 l 417 1167 l 339 1218 b 274 1108 269 1265 188 1156 z m 457 972 l 172 972 b 97 897 131 972 97 939 l 97 75 b 172 0 97 33 131 0 l 457 0 b 860 486 722 0 860 193 b 457 972 860 775 731 972 z m 457 151 l 249 151 l 249 821 l 457 821 b 708 486 639 821 708 697 b 457 151 708 288 642 151 z "},"Đ":{"ha":972,"x_min":0,"x_max":0,"o":"m 457 972 l 172 972 b 97 897 131 972 97 939 l 97 553 l -65 553 b -65 419 -153 553 -151 419 l 97 419 l 97 75 b 172 0 97 33 131 0 l 457 0 b 860 486 722 0 860 193 b 457 972 860 775 731 972 z m 457 151 l 249 151 l 249 419 l 426 419 b 426 553 513 419 514 553 l 249 553 l 249 821 l 457 821 b 708 486 639 821 708 697 b 457 151 708 288 642 151 z "},"E":{"ha":972,"x_min":0,"x_max":0,"o":"m 228 0 l 756 0 b 833 78 799 0 833 35 b 756 156 833 121 799 156 l 294 156 l 294 408 l 621 408 b 699 486 664 408 699 443 b 621 564 699 529 664 564 l 294 564 l 294 817 l 756 817 b 833 894 799 817 833 851 b 756 972 833 938 799 972 l 228 972 b 139 885 179 972 139 933 l 139 88 b 228 0 139 39 179 0 z "},"É":{"ha":972,"x_min":0,"x_max":0,"o":"m 513 1103 l 557 1199 b 443 1256 606 1304 472 1344 l 410 1156 b 513 1103 381 1067 485 1043 z m 228 0 l 756 0 b 833 78 799 0 833 35 b 756 156 833 121 799 156 l 294 156 l 294 408 l 621 408 b 699 486 664 408 699 443 b 621 564 699 529 664 564 l 294 564 l 294 817 l 756 817 b 833 894 799 817 833 851 b 756 972 833 938 799 972 l 228 972 b 139 885 179 972 139 933 l 139 88 b 228 0 139 39 179 0 z "},"Ě":{"ha":972,"x_min":0,"x_max":0,"o":"m 472 1043 l 501 1043 b 629 1108 518 1043 576 1079 b 565 1218 710 1153 636 1268 l 488 1167 l 410 1218 b 344 1108 340 1265 258 1156 b 472 1043 397 1079 457 1043 z m 228 0 l 756 0 b 833 78 799 0 833 35 b 756 156 833 121 799 156 l 294 156 l 294 408 l 621 408 b 699 486 664 408 699 443 b 621 564 699 529 664 564 l 294 564 l 294 817 l 756 817 b 833 894 799 817 833 851 b 756 972 833 938 799 972 l 228 972 b 139 885 179 972 139 933 l 139 88 b 228 0 139 39 179 0 z "},"Ê":{"ha":972,"x_min":0,"x_max":0,"o":"m 344 1192 b 410 1082 264 1147 340 1035 l 488 1133 l 565 1082 b 629 1192 636 1032 707 1149 b 501 1257 564 1228 518 1257 l 472 1257 b 344 1192 454 1257 410 1228 z m 228 0 l 756 0 b 833 78 799 0 833 35 b 756 156 833 121 799 156 l 294 156 l 294 408 l 621 408 b 699 486 664 408 699 443 b 621 564 699 529 664 564 l 294 564 l 294 817 l 756 817 b 833 894 799 817 833 851 b 756 972 833 938 799 972 l 228 972 b 139 885 179 972 139 933 l 139 88 b 228 0 139 39 179 0 z "},"Ë":{"ha":972,"x_min":0,"x_max":0,"o":"m 340 1069 b 451 1169 400 1069 451 1108 b 340 1268 451 1232 400 1268 b 229 1169 278 1268 229 1232 b 340 1069 229 1108 278 1069 z m 632 1069 b 743 1169 692 1069 743 1108 b 632 1268 743 1232 692 1268 b 521 1169 569 1268 521 1232 b 632 1069 521 1108 569 1069 z m 228 0 l 756 0 b 833 78 799 0 833 35 b 756 156 833 121 799 156 l 294 156 l 294 408 l 621 408 b 699 486 664 408 699 443 b 621 564 699 529 664 564 l 294 564 l 294 817 l 756 817 b 833 894 799 817 833 851 b 756 972 833 938 799 972 l 228 972 b 139 885 179 972 139 933 l 139 88 b 228 0 139 39 179 0 z "},"Ė":{"ha":972,"x_min":0,"x_max":0,"o":"m 486 1042 b 597 1142 546 1042 597 1081 b 486 1240 597 1204 546 1240 b 375 1142 424 1240 375 1204 b 486 1042 375 1081 424 1042 z m 228 0 l 756 0 b 833 78 799 0 833 35 b 756 156 833 121 799 156 l 294 156 l 294 408 l 621 408 b 699 486 664 408 699 443 b 621 564 699 529 664 564 l 294 564 l 294 817 l 756 817 b 833 894 799 817 833 851 b 756 972 833 938 799 972 l 228 972 b 139 885 179 972 139 933 l 139 88 b 228 0 139 39 179 0 z "},"È":{"ha":972,"x_min":0,"x_max":0,"o":"m 460 1081 b 563 1133 488 1021 592 1044 l 529 1233 b 415 1176 500 1322 367 1282 z m 228 0 l 756 0 b 833 78 799 0 833 35 b 756 156 833 121 799 156 l 294 156 l 294 408 l 621 408 b 699 486 664 408 699 443 b 621 564 699 529 664 564 l 294 564 l 294 817 l 756 817 b 833 894 799 817 833 851 b 756 972 833 938 799 972 l 228 972 b 139 885 179 972 139 933 l 139 88 b 228 0 139 39 179 0 z "},"Ē":{"ha":972,"x_min":0,"x_max":0,"o":"m 367 1176 b 367 1042 278 1176 279 1042 l 607 1042 b 607 1176 694 1042 696 1176 z m 228 0 l 756 0 b 833 78 799 0 833 35 b 756 156 833 121 799 156 l 294 156 l 294 408 l 621 408 b 699 486 664 408 699 443 b 621 564 699 529 664 564 l 294 564 l 294 817 l 756 817 b 833 894 799 817 833 851 b 756 972 833 938 799 972 l 228 972 b 139 885 179 972 139 933 l 139 88 b 228 0 139 39 179 0 z "},"Ę":{"ha":972,"x_min":0,"x_max":0,"o":"m 779 -136 b 708 -121 757 -161 722 -149 b 753 0 693 -90 721 -21 l 756 0 b 833 78 799 0 833 35 b 756 156 833 121 799 156 l 294 156 l 294 408 l 621 408 b 699 486 664 408 699 443 b 621 564 699 529 664 564 l 294 564 l 294 817 l 756 817 b 833 894 799 817 833 851 b 756 972 833 938 799 972 l 228 972 b 139 885 179 972 139 933 l 139 88 b 228 0 139 39 179 0 l 599 0 b 611 -190 567 -53 567 -128 b 847 -215 665 -267 793 -285 b 779 -136 890 -164 814 -99 z "},"F":{"ha":972,"x_min":0,"x_max":0,"o":"m 217 0 b 294 78 260 0 294 35 l 294 408 l 621 408 b 699 486 664 408 699 443 b 621 564 699 529 664 564 l 294 564 l 294 817 l 756 817 b 833 894 799 817 833 851 b 756 972 833 938 799 972 l 228 972 b 139 885 179 972 139 933 l 139 78 b 217 0 139 35 174 0 z "},"G":{"ha":972,"x_min":0,"x_max":0,"o":"m 533 -7 b 860 138 668 -7 781 43 b 878 185 872 151 878 168 l 878 485 b 804 560 878 526 844 560 l 488 560 b 488 413 392 560 389 413 l 731 413 l 731 214 b 533 140 681 165 614 140 b 240 486 335 140 240 289 b 535 832 240 688 342 832 b 750 740 626 832 699 801 b 861 836 811 669 925 763 b 535 979 782 929 669 979 b 93 486 260 979 93 771 b 533 -7 93 203 254 -7 z "},"Ğ":{"ha":972,"x_min":0,"x_max":0,"o":"m 526 1042 b 708 1182 614 1042 688 1101 b 568 1201 728 1242 600 1276 b 485 1201 550 1158 501 1158 b 344 1182 457 1272 326 1240 b 526 1042 365 1101 439 1042 z m 533 -7 b 860 138 668 -7 781 43 b 878 185 872 151 878 168 l 878 485 b 804 560 878 526 844 560 l 488 560 b 488 413 392 560 389 413 l 731 413 l 731 214 b 533 140 681 165 614 140 b 240 486 335 140 240 289 b 535 832 240 688 342 832 b 750 740 626 832 699 801 b 861 836 811 669 925 763 b 535 979 782 929 669 979 b 93 486 260 979 93 771 b 533 -7 93 203 254 -7 z "},"Ģ":{"ha":972,"x_min":0,"x_max":0,"o":"m 804 560 l 488 560 b 488 413 392 560 389 413 l 731 413 l 731 214 b 533 140 681 165 614 140 b 240 486 335 140 240 289 b 535 832 240 688 342 832 b 750 740 626 832 699 801 b 861 836 811 669 925 763 b 535 979 782 929 669 979 b 93 486 260 979 93 771 b 533 -7 93 203 254 -7 b 860 138 668 -7 781 43 b 878 185 872 151 878 168 l 878 485 b 804 560 878 526 844 560 z m 515 -106 b 438 -176 474 -106 438 -133 b 515 -246 438 -221 474 -246 l 525 -246 b 476 -299 521 -269 508 -292 b 479 -347 443 -306 450 -349 b 571 -294 513 -343 546 -331 b 594 -176 589 -265 596 -222 b 515 -106 594 -133 560 -106 z "},"Ġ":{"ha":972,"x_min":0,"x_max":0,"o":"m 526 1042 b 638 1142 586 1042 638 1081 b 526 1240 638 1204 586 1240 b 415 1142 464 1240 415 1204 b 526 1042 415 1081 464 1042 z m 533 -7 b 860 138 668 -7 781 43 b 878 185 872 151 878 168 l 878 485 b 804 560 878 526 844 560 l 488 560 b 488 413 392 560 389 413 l 731 413 l 731 214 b 533 140 681 165 614 140 b 240 486 335 140 240 289 b 535 832 240 688 342 832 b 750 740 626 832 699 801 b 861 836 811 669 925 763 b 535 979 782 929 669 979 b 93 486 260 979 93 771 b 533 -7 93 203 254 -7 z "},"H":{"ha":972,"x_min":0,"x_max":0,"o":"m 139 78 b 294 78 139 -25 294 -25 l 294 408 l 678 408 l 678 78 b 833 78 678 -25 833 -25 l 833 894 b 678 894 833 997 678 997 l 678 564 l 294 564 l 294 894 b 139 894 294 997 139 997 z "},"Ħ":{"ha":972,"x_min":0,"x_max":0,"o":"m 906 838 l 833 838 l 833 894 b 678 894 833 997 678 997 l 678 838 l 294 838 l 294 894 b 139 894 294 997 139 997 l 139 838 l 65 838 b 65 704 -22 838 -21 704 l 139 704 l 139 78 b 294 78 139 -25 294 -25 l 294 408 l 678 408 l 678 78 b 833 78 678 -25 833 -25 l 833 704 l 906 704 b 906 838 992 704 993 838 z m 678 564 l 294 564 l 294 704 l 678 704 z "},"I":{"ha":972,"x_min":0,"x_max":0,"o":"m 217 0 l 756 0 b 833 78 799 0 833 35 b 756 156 833 121 799 158 l 564 142 l 564 831 l 756 817 b 833 894 799 814 833 851 b 756 972 833 938 799 972 l 217 972 b 139 894 174 972 139 938 b 217 817 139 851 174 814 l 408 831 l 408 142 l 217 156 b 139 78 174 158 139 121 b 217 0 139 35 174 0 z "},"Í":{"ha":972,"x_min":0,"x_max":0,"o":"m 539 1081 l 583 1176 b 469 1233 632 1282 499 1322 l 436 1133 b 539 1081 407 1044 511 1021 z m 217 0 l 756 0 b 833 78 799 0 833 35 b 756 156 833 121 799 158 l 564 142 l 564 831 l 756 817 b 833 894 799 814 833 851 b 756 972 833 938 799 972 l 217 972 b 139 894 174 972 139 938 b 217 817 139 851 174 814 l 408 831 l 408 142 l 217 156 b 139 78 174 158 139 121 b 217 0 139 35 174 0 z "},"Î":{"ha":972,"x_min":0,"x_max":0,"o":"m 344 1185 b 410 1075 264 1140 340 1028 l 488 1126 l 565 1075 b 629 1185 636 1025 707 1142 b 501 1250 564 1221 518 1250 l 472 1250 b 344 1185 454 1250 410 1221 z m 217 0 l 756 0 b 833 78 799 0 833 35 b 756 156 833 121 799 158 l 564 142 l 564 831 l 756 817 b 833 894 799 814 833 851 b 756 972 833 938 799 972 l 217 972 b 139 894 174 972 139 938 b 217 817 139 851 174 814 l 408 831 l 408 142 l 217 156 b 139 78 174 158 139 121 b 217 0 139 35 174 0 z "},"Ï":{"ha":972,"x_min":0,"x_max":0,"o":"m 340 1042 b 451 1142 400 1042 451 1081 b 340 1240 451 1204 400 1240 b 229 1142 278 1240 229 1204 b 340 1042 229 1081 278 1042 z m 632 1042 b 743 1142 692 1042 743 1081 b 632 1240 743 1204 692 1240 b 521 1142 569 1240 521 1204 b 632 1042 521 1081 569 1042 z m 217 0 l 756 0 b 833 78 799 0 833 35 b 756 156 833 121 799 158 l 564 142 l 564 831 l 756 817 b 833 894 799 814 833 851 b 756 972 833 938 799 972 l 217 972 b 139 894 174 972 139 938 b 217 817 139 851 174 814 l 408 831 l 408 142 l 217 156 b 139 78 174 158 139 121 b 217 0 139 35 174 0 z "},"İ":{"ha":972,"x_min":0,"x_max":0,"o":"m 486 1042 b 597 1142 546 1042 597 1081 b 486 1240 597 1204 546 1240 b 375 1142 424 1240 375 1204 b 486 1042 375 1081 424 1042 z m 217 0 l 756 0 b 833 78 799 0 833 35 b 756 156 833 121 799 158 l 564 142 l 564 831 l 756 817 b 833 894 799 814 833 851 b 756 972 833 938 799 972 l 217 972 b 139 894 174 972 139 938 b 217 817 139 851 174 814 l 408 831 l 408 142 l 217 156 b 139 78 174 158 139 121 b 217 0 139 35 174 0 z "},"Ì":{"ha":972,"x_min":0,"x_max":0,"o":"m 429 1081 b 532 1133 457 1021 561 1044 l 499 1233 b 385 1176 469 1322 336 1282 z m 217 0 l 756 0 b 833 78 799 0 833 35 b 756 156 833 121 799 158 l 564 142 l 564 831 l 756 817 b 833 894 799 814 833 851 b 756 972 833 938 799 972 l 217 972 b 139 894 174 972 139 938 b 217 817 139 851 174 814 l 408 831 l 408 142 l 217 156 b 139 78 174 158 139 121 b 217 0 139 35 174 0 z "},"Ī":{"ha":972,"x_min":0,"x_max":0,"o":"m 367 1176 b 367 1042 278 1176 279 1042 l 607 1042 b 607 1176 694 1042 696 1176 z m 217 0 l 756 0 b 833 78 799 0 833 35 b 756 156 833 121 799 158 l 564 142 l 564 831 l 756 817 b 833 894 799 814 833 851 b 756 972 833 938 799 972 l 217 972 b 139 894 174 972 139 938 b 217 817 139 851 174 814 l 408 831 l 408 142 l 217 156 b 139 78 174 158 139 121 b 217 0 139 35 174 0 z "},"Į":{"ha":972,"x_min":0,"x_max":0,"o":"m 756 156 l 564 156 l 564 817 l 756 817 b 833 894 799 817 833 851 b 756 972 833 938 799 972 l 217 972 b 139 894 174 972 139 938 b 217 817 139 851 174 817 l 408 817 l 408 156 l 217 156 b 139 78 174 156 139 121 b 217 0 139 35 174 0 l 410 0 b 422 -190 378 -53 378 -128 b 658 -215 476 -267 604 -285 b 590 -136 701 -164 625 -99 b 519 -121 568 -161 533 -149 b 564 0 504 -90 532 -21 l 756 0 b 833 78 799 0 833 35 b 756 156 833 121 799 156 z "},"J":{"ha":972,"x_min":0,"x_max":0,"o":"m 485 -7 b 844 281 683 -7 844 97 l 843 897 b 693 897 843 997 693 996 l 694 281 b 485 144 694 182 594 144 b 275 229 406 142 301 157 b 129 192 243 317 103 286 b 485 -7 163 60 329 -7 z "},"K":{"ha":972,"x_min":0,"x_max":0,"o":"m 704 24 b 815 132 761 -56 878 47 l 510 546 l 808 833 b 713 956 881 903 786 1026 l 293 547 l 293 894 b 138 894 293 997 138 997 l 138 78 b 293 78 138 -25 293 -25 l 293 350 l 396 450 z "},"Ķ":{"ha":972,"x_min":0,"x_max":0,"o":"m 510 546 l 808 833 b 713 956 881 903 786 1026 l 293 547 l 293 894 b 138 894 293 997 138 997 l 138 78 b 293 78 138 -25 293 -25 l 293 350 l 396 450 l 704 24 b 815 132 761 -56 878 47 z m 475 -93 b 399 -162 433 -93 399 -119 b 475 -232 399 -206 433 -232 l 483 -232 b 436 -282 479 -254 467 -275 b 440 -331 404 -290 411 -333 b 529 -279 472 -328 504 -315 b 553 -162 549 -250 556 -207 b 475 -93 553 -119 519 -93 z "},"L":{"ha":972,"x_min":0,"x_max":0,"o":"m 215 0 l 756 0 b 756 156 858 0 858 156 l 293 156 l 293 894 b 138 894 293 997 138 997 l 138 78 b 215 0 138 35 172 0 z "},"Ĺ":{"ha":972,"x_min":0,"x_max":0,"o":"m 279 1081 l 324 1176 b 210 1233 372 1282 239 1322 l 176 1133 b 279 1081 147 1044 251 1021 z m 215 0 l 756 0 b 756 156 858 0 858 156 l 293 156 l 293 894 b 138 894 293 997 138 997 l 138 78 b 215 0 138 35 172 0 z "},"Ľ":{"ha":972,"x_min":0,"x_max":0,"o":"m 468 757 b 585 758 472 692 581 692 l 597 958 b 456 958 601 1032 451 1032 z m 215 0 l 756 0 b 756 156 858 0 858 156 l 293 156 l 293 894 b 138 894 293 997 138 997 l 138 78 b 215 0 138 35 172 0 z "},"Ļ":{"ha":972,"x_min":0,"x_max":0,"o":"m 756 156 l 293 156 l 293 894 b 138 894 293 997 138 997 l 138 78 b 215 0 138 35 172 0 l 756 0 b 756 156 858 0 858 156 z m 461 -81 b 374 -160 414 -81 374 -111 b 461 -236 374 -208 414 -236 l 471 -236 b 415 -294 465 -262 451 -287 b 419 -349 379 -303 388 -351 b 521 -290 457 -344 493 -331 b 547 -160 542 -258 550 -210 b 461 -81 547 -111 510 -81 z "},"Ł":{"ha":972,"x_min":0,"x_max":0,"o":"m 822 156 l 360 156 l 360 533 l 447 586 b 394 679 526 633 467 724 l 360 658 l 360 894 b 204 894 360 997 204 997 l 204 564 l 100 500 b 150 408 29 457 83 368 l 204 440 l 204 78 b 282 0 204 35 239 0 l 822 0 b 822 156 925 0 925 156 z "}}}
